<svg version="1.1" id="Layer_1" xmlns="http://www.w3.org/2000/svg" xmlns:xlink="http://www.w3.org/1999/xlink" viewBox="0 0 512 512" xml:space="preserve" fill="#000000"><g id="SVGRepo_bgCarrier" stroke-width="0"></g><g id="SVGRepo_tracerCarrier" stroke-linecap="round" stroke-linejoin="round"></g><g id="SVGRepo_iconCarrier"> <polygon style="fill:#004b85;" points="480.874,217.23 409.563,84.637 102.437,84.637 31.126,217.23 58.735,232.076 111.804,133.401 164.873,232.076 192.482,217.23 138.03,115.984 373.97,115.984 319.518,217.23 347.127,232.076 400.196,133.401 453.265,232.076 "></polygon> <path style="fill:#0041c2;" d="M257.045,0c-15.582,0-28.212,12.631-28.212,28.212v456.62h56.424V28.212 C285.257,12.631,272.626,0,257.045,0z"></path> <path style="fill:#fee5a9;" d="M257.045,0L257.045,0c-15.582,0-28.212,12.631-28.212,28.212v456.62h28.212V0z"></path> <path style="fill:#004b85;" d="M128.257,484.833h257.575v-41.325c0-22.189-17.988-40.177-40.177-40.177h-177.22 c-22.189,0-40.177,17.988-40.177,40.177V484.833z"></path> <g> <path style="fill:#0041c2;" d="M257.045,403.331h-88.61c-22.189,0-40.177,17.988-40.177,40.177v41.325h128.788V403.331z"></path> <rect x="96.402" y="457.665" style="fill:#0041c2;" width="321.285" height="54.335"></rect> </g> <rect x="96.402" y="457.665" style="fill:#fee5a9;" width="160.643" height="54.335"></rect> <path style="fill:#0041c2;" d="M111.804,293.268c49.436,0,89.513-40.076,89.513-89.513H22.291 C22.291,253.191,62.368,293.268,111.804,293.268z"></path> <path style="fill:#fee5a9;" d="M111.804,203.755H22.291c0,49.436,40.076,89.513,89.513,89.513V203.755z"></path> <path style="fill:#0041c2;" d="M400.196,293.268c49.436,0,89.513-40.076,89.513-89.513H310.683 C310.683,253.191,350.76,293.268,400.196,293.268z"></path> <path style="fill:#fee5a9;" d="M400.196,203.755h-89.513c0,49.436,40.076,89.513,89.513,89.513V203.755z"></path> </g></svg>